<?xml version="1.0" encoding="UTF-8" standalone="no"?>
<svg xmlns="http://www.w3.org/2000/svg" viewBox="0 0 512 512" width="512" height="512">
  <rect width="512" height="512" fill="#212529" rx="128" ry="128"/>
  <g fill="#5cb85c" transform="translate(96, 96) scale(0.625)">
    <path d="M256 8C119.033 8 8 119.033 8 256s111.033 248 248 248 248-111.033 248-248S392.967 8 256 8zm0 448c-110.532 0-200-89.451-200-200 0-110.531 89.451-200 200-200 110.532 0 200 89.451 200 200 0 110.532-89.451 200-200 200zm0-338c-23.195 0-42 18.805-42 42s18.805 42 42 42 42-18.805 42-42-18.805-42-42-42zm0 282c58.376 0 106.677-51.777 106.677-115.278 0-63.5-48.3-115.279-106.677-115.279-58.376 0-106.676 51.779-106.676 115.279C149.324 338.223 197.624 390 256 390z"/>
  </g>
  <g fill="#007bff" transform="translate(256, 256)">
    <path d="M225.38 233.37c-12.5 12.5-12.5 32.76 0 45.25 12.49 12.5 32.76 12.5 45.25 0 12.5-12.5 12.5-32.76 0-45.25-12.5-12.49-32.76-12.49-45.25 0zM248 8C111.03 8 0 119.03 0 256s111.03 248 248 248 248-111.03 248-248S384.97 8 248 8zm126.14 148.05L308.17 300.45c-3.37 6.5-9.4 10.63-16.07 11.94l-85.86 16.8c-2.57.49-4.69.35-6.19.58-1.93.28-3.56.95-4.78 2.16-1.43 1.44-2.43 3.5-2.43 6.07 0 5.52 4.49 10.01 10.01 10.01h.02c1.92 0 3.18-.38 7.48-1.46l84.27-17.05c14.27-2.79 26.62-11.43 33.46-25.07L408.42 87.6c2.19-4.44 3.58-10.1 3.58-15.61 0-17.79-12.76-33.06-30.74-35.86-6.77-1.09-13.01.35-17.12 1.5-10.8 3-18 8.94-22.06 13.38L284 116.35c-20 20-19.11 21.95-17.3 25.22 7 12.67 20.75 20.03 20.75 20.03s7.17 6.32 14.66 1.69l79.95-79.94c1.1-1.1 2.82-2.25 4.29-2.49 1.93-.28 3.57-.95 4.78-2.16 1.44-1.44 2.43-3.51 2.43-6.07 0-5.52-4.49-10.01-10.01-10.01h-.02c-1.92 0-3.17.39-7.48 1.46l-35.13 7.22c-4.36.89-11.39.14-15.38-3.85L282.09 23.76c-2.49-2.51-5.89-4.59-10.68-4.94-9.88-.72-19.1 4.25-24.15 13.7-5.05 9.46-3.61 20.77 3.75 28.12l18.56 18.56c4.97 4.97 4.97 13.03 0 18-4.95 4.95-13.03 4.97-18 0l-33.69-33.7C204.97 50.59 193.21 42.18 179.4 42.18c-14.08 0-26.13 8.73-30.63 22.22-2.17 6.47-2.68 12.37-.02 19.8 1.79 4.97 5.28 9.61 9.85 14.18l82.75 82.75c6.42 6.43 9.34 14.75 8.26 22.6-.99 7.14-4.91 13.66-11.34 20.09z" transform="translate(-248, -120) scale(0.5)"/>
  </g>
</svg>